<svg width="25" height="25" viewBox="0 0 25 25" fill="none" xmlns="http://www.w3.org/2000/svg">
<path d="M8.94805 3.09375C5.86085 3.09375 3.34961 5.60731 3.34961 8.69531V16.6953C3.34961 19.7825 5.86317 22.2938 8.95117 22.2938H16.9512C20.0384 22.2938 22.5496 19.7802 22.5496 16.6922V8.69219C22.5496 5.60499 20.036 3.09375 16.948 3.09375H8.94805ZM18.5496 6.29375C18.9912 6.29375 19.3496 6.65215 19.3496 7.09375C19.3496 7.53535 18.9912 7.89375 18.5496 7.89375C18.108 7.89375 17.7496 7.53535 17.7496 7.09375C17.7496 6.65215 18.108 6.29375 18.5496 6.29375ZM12.9496 7.89375C15.5968 7.89375 17.7496 10.0466 17.7496 12.6938C17.7496 15.341 15.5968 17.4938 12.9496 17.4938C10.3024 17.4938 8.14961 15.341 8.14961 12.6938C8.14961 10.0466 10.3024 7.89375 12.9496 7.89375ZM12.9496 9.49375C12.1009 9.49375 11.287 9.83089 10.6869 10.431C10.0868 11.0311 9.74961 11.8451 9.74961 12.6938C9.74961 13.5424 10.0868 14.3564 10.6869 14.9565C11.287 15.5566 12.1009 15.8938 12.9496 15.8938C13.7983 15.8938 14.6122 15.5566 15.2123 14.9565C15.8125 14.3564 16.1496 13.5424 16.1496 12.6938C16.1496 11.8451 15.8125 11.0311 15.2123 10.431C14.6122 9.83089 13.7983 9.49375 12.9496 9.49375Z" fill="#555555"/>
</svg>
