<svg width="25" height="25" viewBox="0 0 25 25" fill="none" xmlns="http://www.w3.org/2000/svg">
<path d="M23.3496 6.24348C22.584 6.58348 21.7616 6.81228 20.8984 6.91548C21.78 6.38748 22.456 5.55148 22.7744 4.55468C21.9504 5.04348 21.0368 5.39868 20.064 5.59068C19.2856 4.76108 18.1768 4.24268 16.9496 4.24268C14.5928 4.24268 12.6824 6.15388 12.6824 8.50988C12.6824 8.84428 12.7208 9.17068 12.7928 9.48188C9.24643 9.30428 6.10243 7.60508 3.99683 5.02268C3.63043 5.65308 3.42003 6.38588 3.42003 7.16908C3.42003 8.64908 4.17283 9.95548 5.31763 10.7203C4.61843 10.6979 3.96003 10.5059 3.38483 10.1867C3.38483 10.2051 3.38483 10.2219 3.38483 10.2403C3.38483 12.3083 4.85523 14.0331 6.80803 14.4243C6.45043 14.5219 6.07283 14.5739 5.68323 14.5739C5.40883 14.5739 5.14083 14.5467 4.88083 14.4979C5.42403 16.1931 7.00003 17.4275 8.86723 17.4619C7.40723 18.6067 5.56723 19.2891 3.56723 19.2891C3.22323 19.2891 2.88323 19.2691 2.54883 19.2291C4.43763 20.4395 6.68003 21.1459 9.09043 21.1459C16.94 21.1459 21.2312 14.6435 21.2312 9.00428C21.2312 8.81948 21.2272 8.63548 21.2192 8.45228C22.0536 7.84988 22.7776 7.09868 23.3496 6.24348Z" fill="#555555"/>
</svg>
