<svg width="25" height="25" viewBox="0 0 25 25" fill="none" xmlns="http://www.w3.org/2000/svg">
<path d="M12.9488 3.8938C9.60003 3.8938 5.25352 4.73286 5.25352 4.73286L5.24258 4.74536C3.71736 4.98929 2.54883 6.2999 2.54883 7.8938V12.6938V12.6954V17.4938V17.4954C2.55032 18.2566 2.82312 18.9924 3.31827 19.5705C3.81341 20.1487 4.49845 20.5315 5.25039 20.6501L5.25352 20.6547C5.25352 20.6547 9.60003 21.4954 12.9488 21.4954C16.2976 21.4954 20.6441 20.6547 20.6441 20.6547L20.6457 20.6532C21.3985 20.5349 22.0843 20.1518 22.5798 19.5729C23.0753 18.9941 23.348 18.2574 23.3488 17.4954V17.4938V12.6954V12.6938V7.8938C23.3477 7.1323 23.0751 6.39616 22.5799 5.81765C22.0847 5.23913 21.3995 4.85616 20.6473 4.73755L20.6441 4.73286C20.6441 4.73286 16.2976 3.8938 12.9488 3.8938ZM10.5488 9.01255L16.9488 12.6938L10.5488 16.375V9.01255Z" fill="#555555"/>
</svg>
